<?xml version="1.0" encoding="UTF-8" standalone="no"?>
<!DOCTYPE svg PUBLIC "-//W3C//DTD SVG 1.1//EN"
 "http://www.w3.org/Graphics/SVG/1.1/DTD/svg11.dtd">
<!-- Generated by graphviz version 2.36.0 (20140111.2315)
 -->
<!-- Title: G Pages: 1 -->
<svg width="1462pt" height="827pt"
 viewBox="0.00 0.00 1462.00 827.00" xmlns="http://www.w3.org/2000/svg" xmlns:xlink="http://www.w3.org/1999/xlink">
<g id="graph0" class="graph" transform="scale(1 1) rotate(0) translate(4 823)">
<title>G</title>
<polygon fill="white" stroke="none" points="-4,4 -4,-823 1458,-823 1458,4 -4,4"/>
<text text-anchor="middle" x="727" y="-6.6" font-family="Bitstream Vera Sans" font-size="8.00">generated by sadisplay v0.3.8dev</text>
<!-- Area -->
<g id="node1" class="node"><title>Area</title>
<polygon fill="lightyellow" stroke="none" points="150.5,-119 150.5,-371 281.5,-371 281.5,-119 150.5,-119"/>
<polygon fill="palegoldenrod" stroke="none" points="151,-353 151,-371 282,-371 282,-353 151,-353"/>
<text text-anchor="start" x="207" y="-360.1" font-family="Helvetica Bold" font-size="8.00">Area</text>
<text text-anchor="start" x="153" y="-344.6" font-family="Bitstream Vera Sans" font-size="8.00">type</text>
<text text-anchor="start" x="237" y="-344.6" font-family="Bitstream Vera Sans" font-size="8.00">Integer</text>
<text text-anchor="start" x="153" y="-331.6" font-family="Bitstream Vera Sans" font-size="8.00">id</text>
<text text-anchor="start" x="237" y="-331.6" font-family="Bitstream Vera Sans" font-size="8.00">Integer</text>
<text text-anchor="start" x="153" y="-318.6" font-family="Bitstream Vera Sans" font-size="8.00">gid</text>
<text text-anchor="start" x="237" y="-318.6" font-family="Bitstream Vera Sans" font-size="8.00">UUID</text>
<text text-anchor="start" x="153" y="-305.6" font-family="Bitstream Vera Sans" font-size="8.00">name</text>
<text text-anchor="start" x="237" y="-305.6" font-family="Bitstream Vera Sans" font-size="8.00">String</text>
<text text-anchor="start" x="153" y="-292.6" font-family="Bitstream Vera Sans" font-size="8.00">sort_name</text>
<text text-anchor="start" x="237" y="-292.6" font-family="Bitstream Vera Sans" font-size="8.00">String</text>
<text text-anchor="start" x="153" y="-279.6" font-family="Bitstream Vera Sans" font-size="8.00">edits_pending</text>
<text text-anchor="start" x="237" y="-279.6" font-family="Bitstream Vera Sans" font-size="8.00">Integer</text>
<text text-anchor="start" x="153" y="-266.6" font-family="Bitstream Vera Sans" font-size="8.00">last_updated</text>
<text text-anchor="start" x="237" y="-266.6" font-family="Bitstream Vera Sans" font-size="8.00">DateTime</text>
<text text-anchor="start" x="153" y="-253.6" font-family="Bitstream Vera Sans" font-size="8.00">begin_date_year</text>
<text text-anchor="start" x="237" y="-253.6" font-family="Bitstream Vera Sans" font-size="8.00">SMALLINT</text>
<text text-anchor="start" x="153" y="-240.6" font-family="Bitstream Vera Sans" font-size="8.00">begin_date_month</text>
<text text-anchor="start" x="237" y="-240.6" font-family="Bitstream Vera Sans" font-size="8.00">SMALLINT</text>
<text text-anchor="start" x="153" y="-227.6" font-family="Bitstream Vera Sans" font-size="8.00">begin_date_day</text>
<text text-anchor="start" x="237" y="-227.6" font-family="Bitstream Vera Sans" font-size="8.00">SMALLINT</text>
<text text-anchor="start" x="153" y="-214.6" font-family="Bitstream Vera Sans" font-size="8.00">end_date_year</text>
<text text-anchor="start" x="237" y="-214.6" font-family="Bitstream Vera Sans" font-size="8.00">SMALLINT</text>
<text text-anchor="start" x="153" y="-201.6" font-family="Bitstream Vera Sans" font-size="8.00">end_date_month</text>
<text text-anchor="start" x="237" y="-201.6" font-family="Bitstream Vera Sans" font-size="8.00">SMALLINT</text>
<text text-anchor="start" x="153" y="-188.6" font-family="Bitstream Vera Sans" font-size="8.00">end_date_day</text>
<text text-anchor="start" x="237" y="-188.6" font-family="Bitstream Vera Sans" font-size="8.00">SMALLINT</text>
<text text-anchor="start" x="153" y="-175.6" font-family="Bitstream Vera Sans" font-size="8.00">ended</text>
<text text-anchor="start" x="237" y="-175.6" font-family="Bitstream Vera Sans" font-size="8.00">Boolean</text>
<text text-anchor="start" x="153" y="-162.6" font-family="Bitstream Vera Sans" font-size="8.00">comment</text>
<text text-anchor="start" x="237" y="-162.6" font-family="Bitstream Vera Sans" font-size="8.00">String</text>
<polygon fill="palegoldenrod" stroke="none" points="151,-145 151,-158 235,-158 235,-145 151,-145"/>
<text text-anchor="start" x="153" y="-149.6" font-family="Bitstream Vera Sans" font-size="8.00">begin_date</text>
<polygon fill="palegoldenrod" stroke="none" points="235,-145 235,-158 282,-158 282,-145 235,-145"/>
<text text-anchor="start" x="237" y="-149.6" font-family="Bitstream Vera Sans" font-size="8.00">PROPERTY</text>
<polygon fill="palegoldenrod" stroke="none" points="151,-132 151,-145 235,-145 235,-132 151,-132"/>
<text text-anchor="start" x="153" y="-136.6" font-family="Bitstream Vera Sans" font-size="8.00">end_date</text>
<polygon fill="palegoldenrod" stroke="none" points="235,-132 235,-145 282,-145 282,-132 235,-132"/>
<text text-anchor="start" x="237" y="-136.6" font-family="Bitstream Vera Sans" font-size="8.00">PROPERTY</text>
<polygon fill="palegoldenrod" stroke="none" points="151,-119 151,-132 235,-132 235,-119 151,-119"/>
<text text-anchor="start" x="153" y="-123.6" font-family="Bitstream Vera Sans" font-size="8.00">type</text>
<polygon fill="palegoldenrod" stroke="none" points="235,-119 235,-132 282,-132 282,-119 235,-119"/>
<text text-anchor="start" x="237" y="-123.6" font-family="Bitstream Vera Sans" font-size="8.00">PROPERTY</text>
</g>
<!-- AreaType -->
<g id="node5" class="node"><title>AreaType</title>
<polygon fill="lightyellow" stroke="none" points="183.5,-21 183.5,-65 248.5,-65 248.5,-21 183.5,-21"/>
<polygon fill="palegoldenrod" stroke="none" points="184,-47 184,-65 249,-65 249,-47 184,-47"/>
<text text-anchor="start" x="197.5" y="-54.1" font-family="Helvetica Bold" font-size="8.00">AreaType</text>
<text text-anchor="start" x="186" y="-38.6" font-family="Bitstream Vera Sans" font-size="8.00">id</text>
<text text-anchor="start" x="216" y="-38.6" font-family="Bitstream Vera Sans" font-size="8.00">Integer</text>
<text text-anchor="start" x="186" y="-25.6" font-family="Bitstream Vera Sans" font-size="8.00">name</text>
<text text-anchor="start" x="216" y="-25.6" font-family="Bitstream Vera Sans" font-size="8.00">String</text>
</g>
<!-- Area&#45;&gt;AreaType -->
<g id="edge5" class="edge"><title>Area&#45;&gt;AreaType</title>
<path fill="none" stroke="black" d="M216,-114.794C216,-102.745 216,-91.3165 216,-81.2961"/>
<polygon fill="none" stroke="black" points="216,-81.0006 212,-75.0006 216,-69.0006 220,-75.0006 216,-81.0006"/>
<text text-anchor="middle" x="225.5" y="-90.1" font-family="Bitstream Vera Sans" font-size="8.00">type</text>
</g>
<!-- AreaAlias -->
<g id="node2" class="node"><title>AreaAlias</title>
<polygon fill="lightyellow" stroke="none" points="7.5,-425 7.5,-703 138.5,-703 138.5,-425 7.5,-425"/>
<polygon fill="palegoldenrod" stroke="none" points="8,-685 8,-703 139,-703 139,-685 8,-685"/>
<text text-anchor="start" x="54.5" y="-692.1" font-family="Helvetica Bold" font-size="8.00">AreaAlias</text>
<text text-anchor="start" x="10" y="-676.6" font-family="Bitstream Vera Sans" font-size="8.00">area</text>
<text text-anchor="start" x="94" y="-676.6" font-family="Bitstream Vera Sans" font-size="8.00">Integer</text>
<text text-anchor="start" x="10" y="-663.6" font-family="Bitstream Vera Sans" font-size="8.00">type</text>
<text text-anchor="start" x="94" y="-663.6" font-family="Bitstream Vera Sans" font-size="8.00">Integer</text>
<text text-anchor="start" x="10" y="-650.6" font-family="Bitstream Vera Sans" font-size="8.00">id</text>
<text text-anchor="start" x="94" y="-650.6" font-family="Bitstream Vera Sans" font-size="8.00">Integer</text>
<text text-anchor="start" x="10" y="-637.6" font-family="Bitstream Vera Sans" font-size="8.00">name</text>
<text text-anchor="start" x="94" y="-637.6" font-family="Bitstream Vera Sans" font-size="8.00">String</text>
<text text-anchor="start" x="10" y="-624.6" font-family="Bitstream Vera Sans" font-size="8.00">locale</text>
<text text-anchor="start" x="94" y="-624.6" font-family="Bitstream Vera Sans" font-size="8.00">String</text>
<text text-anchor="start" x="10" y="-611.6" font-family="Bitstream Vera Sans" font-size="8.00">edits_pending</text>
<text text-anchor="start" x="94" y="-611.6" font-family="Bitstream Vera Sans" font-size="8.00">Integer</text>
<text text-anchor="start" x="10" y="-598.6" font-family="Bitstream Vera Sans" font-size="8.00">last_updated</text>
<text text-anchor="start" x="94" y="-598.6" font-family="Bitstream Vera Sans" font-size="8.00">DateTime</text>
<text text-anchor="start" x="10" y="-585.6" font-family="Bitstream Vera Sans" font-size="8.00">sort_name</text>
<text text-anchor="start" x="94" y="-585.6" font-family="Bitstream Vera Sans" font-size="8.00">String</text>
<text text-anchor="start" x="10" y="-572.6" font-family="Bitstream Vera Sans" font-size="8.00">begin_date_year</text>
<text text-anchor="start" x="94" y="-572.6" font-family="Bitstream Vera Sans" font-size="8.00">SMALLINT</text>
<text text-anchor="start" x="10" y="-559.6" font-family="Bitstream Vera Sans" font-size="8.00">begin_date_month</text>
<text text-anchor="start" x="94" y="-559.6" font-family="Bitstream Vera Sans" font-size="8.00">SMALLINT</text>
<text text-anchor="start" x="10" y="-546.6" font-family="Bitstream Vera Sans" font-size="8.00">begin_date_day</text>
<text text-anchor="start" x="94" y="-546.6" font-family="Bitstream Vera Sans" font-size="8.00">SMALLINT</text>
<text text-anchor="start" x="10" y="-533.6" font-family="Bitstream Vera Sans" font-size="8.00">end_date_year</text>
<text text-anchor="start" x="94" y="-533.6" font-family="Bitstream Vera Sans" font-size="8.00">SMALLINT</text>
<text text-anchor="start" x="10" y="-520.6" font-family="Bitstream Vera Sans" font-size="8.00">end_date_month</text>
<text text-anchor="start" x="94" y="-520.6" font-family="Bitstream Vera Sans" font-size="8.00">SMALLINT</text>
<text text-anchor="start" x="10" y="-507.6" font-family="Bitstream Vera Sans" font-size="8.00">end_date_day</text>
<text text-anchor="start" x="94" y="-507.6" font-family="Bitstream Vera Sans" font-size="8.00">SMALLINT</text>
<text text-anchor="start" x="10" y="-494.6" font-family="Bitstream Vera Sans" font-size="8.00">primary_for_locale</text>
<text text-anchor="start" x="94" y="-494.6" font-family="Bitstream Vera Sans" font-size="8.00">Boolean</text>
<text text-anchor="start" x="10" y="-481.6" font-family="Bitstream Vera Sans" font-size="8.00">ended</text>
<text text-anchor="start" x="94" y="-481.6" font-family="Bitstream Vera Sans" font-size="8.00">Boolean</text>
<polygon fill="palegoldenrod" stroke="none" points="8,-464 8,-477 92,-477 92,-464 8,-464"/>
<text text-anchor="start" x="10" y="-468.6" font-family="Bitstream Vera Sans" font-size="8.00">area</text>
<polygon fill="palegoldenrod" stroke="none" points="92,-464 92,-477 139,-477 139,-464 92,-464"/>
<text text-anchor="start" x="94" y="-468.6" font-family="Bitstream Vera Sans" font-size="8.00">PROPERTY</text>
<polygon fill="palegoldenrod" stroke="none" points="8,-451 8,-464 92,-464 92,-451 8,-451"/>
<text text-anchor="start" x="10" y="-455.6" font-family="Bitstream Vera Sans" font-size="8.00">begin_date</text>
<polygon fill="palegoldenrod" stroke="none" points="92,-451 92,-464 139,-464 139,-451 92,-451"/>
<text text-anchor="start" x="94" y="-455.6" font-family="Bitstream Vera Sans" font-size="8.00">PROPERTY</text>
<polygon fill="palegoldenrod" stroke="none" points="8,-438 8,-451 92,-451 92,-438 8,-438"/>
<text text-anchor="start" x="10" y="-442.6" font-family="Bitstream Vera Sans" font-size="8.00">end_date</text>
<polygon fill="palegoldenrod" stroke="none" points="92,-438 92,-451 139,-451 139,-438 92,-438"/>
<text text-anchor="start" x="94" y="-442.6" font-family="Bitstream Vera Sans" font-size="8.00">PROPERTY</text>
<polygon fill="palegoldenrod" stroke="none" points="8,-425 8,-438 92,-438 92,-425 8,-425"/>
<text text-anchor="start" x="10" y="-429.6" font-family="Bitstream Vera Sans" font-size="8.00">type</text>
<polygon fill="palegoldenrod" stroke="none" points="92,-425 92,-438 139,-438 139,-425 92,-425"/>
<text text-anchor="start" x="94" y="-429.6" font-family="Bitstream Vera Sans" font-size="8.00">PROPERTY</text>
</g>
<!-- AreaAlias&#45;&gt;Area -->
<g id="edge6" class="edge"><title>AreaAlias&#45;&gt;Area</title>
<path fill="none" stroke="black" d="M137.18,-420.727C142.356,-409.252 147.585,-397.662 152.755,-386.201"/>
<polygon fill="none" stroke="black" points="152.755,-386.2 151.576,-379.086 157.69,-375.261 158.869,-382.375 152.755,-386.2"/>
<text text-anchor="middle" x="159" y="-396.1" font-family="Bitstream Vera Sans" font-size="8.00">area</text>
</g>
<!-- AreaAliasType -->
<g id="node3" class="node"><title>AreaAliasType</title>
<polygon fill="lightyellow" stroke="none" points="39.5,-223 39.5,-267 106.5,-267 106.5,-223 39.5,-223"/>
<polygon fill="palegoldenrod" stroke="none" points="40,-249 40,-267 107,-267 107,-249 40,-249"/>
<text text-anchor="start" x="44.5" y="-256.1" font-family="Helvetica Bold" font-size="8.00">AreaAliasType</text>
<text text-anchor="start" x="42" y="-240.6" font-family="Bitstream Vera Sans" font-size="8.00">id</text>
<text text-anchor="start" x="73" y="-240.6" font-family="Bitstream Vera Sans" font-size="8.00">Integer</text>
<text text-anchor="start" x="42" y="-227.6" font-family="Bitstream Vera Sans" font-size="8.00">name</text>
<text text-anchor="start" x="73" y="-227.6" font-family="Bitstream Vera Sans" font-size="8.00">String</text>
</g>
<!-- AreaAlias&#45;&gt;AreaAliasType -->
<g id="edge7" class="edge"><title>AreaAlias&#45;&gt;AreaAliasType</title>
<path fill="none" stroke="black" d="M73,-420.727C73,-370.229 73,-317.511 73,-283.366"/>
<polygon fill="none" stroke="black" points="73.0001,-283.232 69,-277.232 73,-271.232 77,-277.232 73.0001,-283.232"/>
<text text-anchor="middle" x="82.5" y="-396.1" font-family="Bitstream Vera Sans" font-size="8.00">type</text>
</g>
<!-- AreaGIDRedirect -->
<g id="node4" class="node"><title>AreaGIDRedirect</title>
<polygon fill="lightyellow" stroke="none" points="173,-529 173,-599 259,-599 259,-529 173,-529"/>
<polygon fill="palegoldenrod" stroke="none" points="173,-581 173,-599 259,-599 259,-581 173,-581"/>
<text text-anchor="start" x="183" y="-588.1" font-family="Helvetica Bold" font-size="8.00">AreaGIDRedirect</text>
<text text-anchor="start" x="175" y="-572.6" font-family="Bitstream Vera Sans" font-size="8.00">new_id</text>
<text text-anchor="start" x="214" y="-572.6" font-family="Bitstream Vera Sans" font-size="8.00">Integer</text>
<text text-anchor="start" x="175" y="-559.6" font-family="Bitstream Vera Sans" font-size="8.00">gid</text>
<text text-anchor="start" x="214" y="-559.6" font-family="Bitstream Vera Sans" font-size="8.00">UUID</text>
<text text-anchor="start" x="175" y="-546.6" font-family="Bitstream Vera Sans" font-size="8.00">created</text>
<text text-anchor="start" x="214" y="-546.6" font-family="Bitstream Vera Sans" font-size="8.00">DateTime</text>
<polygon fill="palegoldenrod" stroke="none" points="173,-529 173,-542 212,-542 212,-529 173,-529"/>
<text text-anchor="start" x="175" y="-533.6" font-family="Bitstream Vera Sans" font-size="8.00">redirect</text>
<polygon fill="palegoldenrod" stroke="none" points="212,-529 212,-542 259,-542 259,-529 212,-529"/>
<text text-anchor="start" x="214" y="-533.6" font-family="Bitstream Vera Sans" font-size="8.00">PROPERTY</text>
</g>
<!-- AreaGIDRedirect&#45;&gt;Area -->
<g id="edge8" class="edge"><title>AreaGIDRedirect&#45;&gt;Area</title>
<path fill="none" stroke="black" d="M216,-524.762C216,-490.385 216,-437.696 216,-387.345"/>
<polygon fill="none" stroke="black" points="216,-387.291 212,-381.291 216,-375.291 220,-381.291 216,-387.291"/>
<text text-anchor="middle" x="231" y="-396.1" font-family="Bitstream Vera Sans" font-size="8.00">new_id</text>
</g>
<!-- Edit -->
<g id="node6" class="node"><title>Edit</title>
<polygon fill="lightyellow" stroke="none" points="940,-516 940,-612 1040,-612 1040,-516 940,-516"/>
<polygon fill="palegoldenrod" stroke="none" points="940,-594 940,-612 1040,-612 1040,-594 940,-594"/>
<text text-anchor="start" x="982" y="-601.1" font-family="Helvetica Bold" font-size="8.00">Edit</text>
<text text-anchor="start" x="942" y="-585.6" font-family="Bitstream Vera Sans" font-size="8.00">id</text>
<text text-anchor="start" x="1003" y="-585.6" font-family="Bitstream Vera Sans" font-size="8.00">UUID</text>
<text text-anchor="start" x="942" y="-572.6" font-family="Bitstream Vera Sans" font-size="8.00">resource_gid</text>
<text text-anchor="start" x="1003" y="-572.6" font-family="Bitstream Vera Sans" font-size="8.00">UUID</text>
<text text-anchor="start" x="942" y="-559.6" font-family="Bitstream Vera Sans" font-size="8.00">editor_id</text>
<text text-anchor="start" x="1003" y="-559.6" font-family="Bitstream Vera Sans" font-size="8.00">Integer</text>
<text text-anchor="start" x="942" y="-546.6" font-family="Bitstream Vera Sans" font-size="8.00">start_data</text>
<text text-anchor="start" x="1003" y="-546.6" font-family="Bitstream Vera Sans" font-size="8.00">JSON</text>
<text text-anchor="start" x="942" y="-533.6" font-family="Bitstream Vera Sans" font-size="8.00">end_data</text>
<text text-anchor="start" x="1003" y="-533.6" font-family="Bitstream Vera Sans" font-size="8.00">JSON</text>
<text text-anchor="start" x="942" y="-520.6" font-family="Bitstream Vera Sans" font-size="8.00">applied</text>
<text text-anchor="start" x="1003" y="-520.6" font-family="Bitstream Vera Sans" font-size="8.00">Boolean</text>
</g>
<!-- Editor -->
<g id="node7" class="node"><title>Editor</title>
<polygon fill="lightyellow" stroke="none" points="1073,-197 1073,-293 1171,-293 1171,-197 1073,-197"/>
<polygon fill="palegoldenrod" stroke="none" points="1073,-275 1073,-293 1171,-293 1171,-275 1073,-275"/>
<text text-anchor="start" x="1109.5" y="-282.1" font-family="Helvetica Bold" font-size="8.00">Editor</text>
<text text-anchor="start" x="1075" y="-266.6" font-family="Bitstream Vera Sans" font-size="8.00">id</text>
<text text-anchor="start" x="1128" y="-266.6" font-family="Bitstream Vera Sans" font-size="8.00">Integer</text>
<text text-anchor="start" x="1075" y="-253.6" font-family="Bitstream Vera Sans" font-size="8.00">reputation</text>
<text text-anchor="start" x="1128" y="-253.6" font-family="Bitstream Vera Sans" font-size="8.00">Integer</text>
<text text-anchor="start" x="1075" y="-240.6" font-family="Bitstream Vera Sans" font-size="8.00">created</text>
<text text-anchor="start" x="1128" y="-240.6" font-family="Bitstream Vera Sans" font-size="8.00">DateTime</text>
<text text-anchor="start" x="1075" y="-227.6" font-family="Bitstream Vera Sans" font-size="8.00">email</text>
<text text-anchor="start" x="1128" y="-227.6" font-family="Bitstream Vera Sans" font-size="8.00">Unicode</text>
<text text-anchor="start" x="1075" y="-214.6" font-family="Bitstream Vera Sans" font-size="8.00">active</text>
<text text-anchor="start" x="1128" y="-214.6" font-family="Bitstream Vera Sans" font-size="8.00">Boolean</text>
<text text-anchor="start" x="1075" y="-201.6" font-family="Bitstream Vera Sans" font-size="8.00">suspended</text>
<text text-anchor="start" x="1128" y="-201.6" font-family="Bitstream Vera Sans" font-size="8.00">Boolean</text>
</g>
<!-- Edit&#45;&gt;Editor -->
<g id="edge10" class="edge"><title>Edit&#45;&gt;Editor</title>
<path fill="none" stroke="black" d="M1011.35,-511.716C1034.46,-456.239 1071.29,-367.772 1096.05,-308.326"/>
<polygon fill="none" stroke="black" points="1096.06,-308.288 1094.68,-301.211 1100.68,-297.21 1102.06,-304.287 1096.06,-308.288"/>
<text text-anchor="middle" x="1077.5" y="-396.1" font-family="Bitstream Vera Sans" font-size="8.00">editor_id</text>
</g>
<!-- Resource -->
<g id="node14" class="node"><title>Resource</title>
<polygon fill="lightyellow" stroke="none" points="781,-197 781,-293 901,-293 901,-197 781,-197"/>
<polygon fill="palegoldenrod" stroke="none" points="781,-275 781,-293 901,-293 901,-275 781,-275"/>
<text text-anchor="start" x="822" y="-282.1" font-family="Helvetica Bold" font-size="8.00">Resource</text>
<text text-anchor="start" x="783" y="-266.6" font-family="Bitstream Vera Sans" font-size="8.00">gid</text>
<text text-anchor="start" x="848" y="-266.6" font-family="Bitstream Vera Sans" font-size="8.00">UUID</text>
<text text-anchor="start" x="783" y="-253.6" font-family="Bitstream Vera Sans" font-size="8.00">revision</text>
<text text-anchor="start" x="848" y="-253.6" font-family="Bitstream Vera Sans" font-size="8.00">Integer</text>
<text text-anchor="start" x="783" y="-240.6" font-family="Bitstream Vera Sans" font-size="8.00">edits_pending</text>
<text text-anchor="start" x="848" y="-240.6" font-family="Bitstream Vera Sans" font-size="8.00">Integer</text>
<text text-anchor="start" x="783" y="-227.6" font-family="Bitstream Vera Sans" font-size="8.00">last_updated</text>
<text text-anchor="start" x="848" y="-227.6" font-family="Bitstream Vera Sans" font-size="8.00">DateTime</text>
<text text-anchor="start" x="783" y="-214.6" font-family="Bitstream Vera Sans" font-size="8.00">comment</text>
<text text-anchor="start" x="848" y="-214.6" font-family="Bitstream Vera Sans" font-size="8.00">UnicodeText</text>
<text text-anchor="start" x="783" y="-201.6" font-family="Bitstream Vera Sans" font-size="8.00">_type</text>
<text text-anchor="start" x="848" y="-201.6" font-family="Bitstream Vera Sans" font-size="8.00">String</text>
</g>
<!-- Edit&#45;&gt;Resource -->
<g id="edge9" class="edge"><title>Edit&#45;&gt;Resource</title>
<path fill="none" stroke="black" d="M975.893,-511.997C965.336,-482.079 948.142,-445.469 922,-421 906.273,-406.28 891.006,-419.366 877,-403 855.009,-377.304 845.762,-340.845 842.125,-309.528"/>
<polygon fill="none" stroke="black" points="842.105,-309.311 837.549,-303.721 840.957,-297.366 845.513,-302.956 842.105,-309.311"/>
<text text-anchor="middle" x="905" y="-396.1" font-family="Bitstream Vera Sans" font-size="8.00">resource_gid</text>
</g>
<!-- EditorLanguage -->
<g id="node8" class="node"><title>EditorLanguage</title>
<polygon fill="lightyellow" stroke="none" points="1360,-535.5 1360,-592.5 1440,-592.5 1440,-535.5 1360,-535.5"/>
<polygon fill="palegoldenrod" stroke="none" points="1360,-574 1360,-592 1440,-592 1440,-574 1360,-574"/>
<text text-anchor="start" x="1368" y="-581.1" font-family="Helvetica Bold" font-size="8.00">EditorLanguage</text>
<text text-anchor="start" x="1362" y="-565.6" font-family="Bitstream Vera Sans" font-size="8.00">editor_id</text>
<text text-anchor="start" x="1407" y="-565.6" font-family="Bitstream Vera Sans" font-size="8.00">Integer</text>
<text text-anchor="start" x="1362" y="-552.6" font-family="Bitstream Vera Sans" font-size="8.00">language</text>
<text text-anchor="start" x="1407" y="-552.6" font-family="Bitstream Vera Sans" font-size="8.00">Integer</text>
<text text-anchor="start" x="1362" y="-539.6" font-family="Bitstream Vera Sans" font-size="8.00">fluency</text>
<text text-anchor="start" x="1407" y="-539.6" font-family="Bitstream Vera Sans" font-size="8.00">Enum</text>
</g>
<!-- EditorLanguage&#45;&gt;Editor -->
<g id="edge11" class="edge"><title>EditorLanguage&#45;&gt;Editor</title>
<path fill="none" stroke="black" d="M1393.2,-531.346C1385.3,-500.512 1369.81,-453.639 1343,-421 1328.52,-403.377 1321.15,-401.527 1300,-393 1260.55,-377.096 1241.31,-398.715 1206,-375 1181.55,-358.581 1162.59,-332.396 1148.92,-307.894"/>
<polygon fill="none" stroke="black" points="1148.84,-307.752 1142.49,-304.341 1143.19,-297.164 1149.55,-300.576 1148.84,-307.752"/>
<text text-anchor="middle" x="1340.5" y="-396.1" font-family="Bitstream Vera Sans" font-size="8.00">editor_id</text>
</g>
<!-- Language -->
<g id="node11" class="node"><title>Language</title>
<polygon fill="lightyellow" stroke="none" points="1353.5,-190.5 1353.5,-299.5 1446.5,-299.5 1446.5,-190.5 1353.5,-190.5"/>
<polygon fill="palegoldenrod" stroke="none" points="1354,-281 1354,-299 1447,-299 1447,-281 1354,-281"/>
<text text-anchor="start" x="1380.5" y="-288.1" font-family="Helvetica Bold" font-size="8.00">Language</text>
<text text-anchor="start" x="1356" y="-272.6" font-family="Bitstream Vera Sans" font-size="8.00">id</text>
<text text-anchor="start" x="1414" y="-272.6" font-family="Bitstream Vera Sans" font-size="8.00">Integer</text>
<text text-anchor="start" x="1356" y="-259.6" font-family="Bitstream Vera Sans" font-size="8.00">iso_code_2t</text>
<text text-anchor="start" x="1414" y="-259.6" font-family="Bitstream Vera Sans" font-size="8.00">CHAR</text>
<text text-anchor="start" x="1356" y="-246.6" font-family="Bitstream Vera Sans" font-size="8.00">iso_code_2b</text>
<text text-anchor="start" x="1414" y="-246.6" font-family="Bitstream Vera Sans" font-size="8.00">CHAR</text>
<text text-anchor="start" x="1356" y="-233.6" font-family="Bitstream Vera Sans" font-size="8.00">iso_code_1</text>
<text text-anchor="start" x="1414" y="-233.6" font-family="Bitstream Vera Sans" font-size="8.00">CHAR</text>
<text text-anchor="start" x="1356" y="-220.6" font-family="Bitstream Vera Sans" font-size="8.00">name</text>
<text text-anchor="start" x="1414" y="-220.6" font-family="Bitstream Vera Sans" font-size="8.00">String</text>
<text text-anchor="start" x="1356" y="-207.6" font-family="Bitstream Vera Sans" font-size="8.00">frequency</text>
<text text-anchor="start" x="1414" y="-207.6" font-family="Bitstream Vera Sans" font-size="8.00">Integer</text>
<text text-anchor="start" x="1356" y="-194.6" font-family="Bitstream Vera Sans" font-size="8.00">iso_code_3</text>
<text text-anchor="start" x="1414" y="-194.6" font-family="Bitstream Vera Sans" font-size="8.00">CHAR</text>
</g>
<!-- EditorLanguage&#45;&gt;Language -->
<g id="edge12" class="edge"><title>EditorLanguage&#45;&gt;Language</title>
<path fill="none" stroke="black" d="M1400,-531.446C1400,-481.468 1400,-382.892 1400,-315.72"/>
<polygon fill="none" stroke="black" points="1400,-315.561 1396,-309.561 1400,-303.561 1404,-309.561 1400,-315.561"/>
<text text-anchor="middle" x="1420" y="-396.1" font-family="Bitstream Vera Sans" font-size="8.00">language</text>
</g>
<!-- Entity -->
<g id="node9" class="node"><title>Entity</title>
<polygon fill="lightyellow" stroke="none" points="776.5,-496.5 776.5,-631.5 905.5,-631.5 905.5,-496.5 776.5,-496.5"/>
<polygon fill="palegoldenrod" stroke="none" points="777,-613 777,-631 906,-631 906,-613 777,-613"/>
<text text-anchor="start" x="829.5" y="-620.1" font-family="Helvetica Bold" font-size="8.00">Entity</text>
<text text-anchor="start" x="779" y="-604.6" font-family="Bitstream Vera Sans" font-size="8.00">gid</text>
<text text-anchor="start" x="853" y="-604.6" font-family="Bitstream Vera Sans" font-size="8.00">UUID</text>
<text text-anchor="start" x="779" y="-591.6" font-family="Bitstream Vera Sans" font-size="8.00">revision</text>
<text text-anchor="start" x="853" y="-591.6" font-family="Bitstream Vera Sans" font-size="8.00">Integer</text>
<text text-anchor="start" x="779" y="-578.6" font-family="Bitstream Vera Sans" font-size="8.00">edits_pending</text>
<text text-anchor="start" x="853" y="-578.6" font-family="Bitstream Vera Sans" font-size="8.00">Integer</text>
<text text-anchor="start" x="779" y="-565.6" font-family="Bitstream Vera Sans" font-size="8.00">last_updated</text>
<text text-anchor="start" x="853" y="-565.6" font-family="Bitstream Vera Sans" font-size="8.00">DateTime</text>
<text text-anchor="start" x="779" y="-552.6" font-family="Bitstream Vera Sans" font-size="8.00">comment</text>
<text text-anchor="start" x="853" y="-552.6" font-family="Bitstream Vera Sans" font-size="8.00">UnicodeText</text>
<text text-anchor="start" x="779" y="-539.6" font-family="Bitstream Vera Sans" font-size="8.00">_type</text>
<text text-anchor="start" x="853" y="-539.6" font-family="Bitstream Vera Sans" font-size="8.00">String</text>
<text text-anchor="start" x="779" y="-526.6" font-family="Bitstream Vera Sans" font-size="8.00">primary_name</text>
<text text-anchor="start" x="853" y="-526.6" font-family="Bitstream Vera Sans" font-size="8.00">UnicodeText</text>
<text text-anchor="start" x="779" y="-513.6" font-family="Bitstream Vera Sans" font-size="8.00">begin_event_gid</text>
<text text-anchor="start" x="853" y="-513.6" font-family="Bitstream Vera Sans" font-size="8.00">UUID</text>
<text text-anchor="start" x="779" y="-500.6" font-family="Bitstream Vera Sans" font-size="8.00">end_event_gid</text>
<text text-anchor="start" x="853" y="-500.6" font-family="Bitstream Vera Sans" font-size="8.00">UUID</text>
</g>
<!-- Entity&#45;&gt;Resource -->
<g id="edge1" class="edge"><title>Entity&#45;&gt;Resource</title>
<path fill="none" stroke="black" d="M841,-492.254C841,-436.827 841,-360.494 841,-307.569"/>
<polygon fill="none" stroke="black" points="844.5,-307.309 841,-297.309 837.5,-307.309 844.5,-307.309"/>
</g>
<!-- Event -->
<g id="node10" class="node"><title>Event</title>
<polygon fill="lightyellow" stroke="none" points="456.5,-483.5 456.5,-644.5 591.5,-644.5 591.5,-483.5 456.5,-483.5"/>
<polygon fill="palegoldenrod" stroke="none" points="457,-626 457,-644 592,-644 592,-626 457,-626"/>
<text text-anchor="start" x="513" y="-633.1" font-family="Helvetica Bold" font-size="8.00">Event</text>
<text text-anchor="start" x="459" y="-617.6" font-family="Bitstream Vera Sans" font-size="8.00">gid</text>
<text text-anchor="start" x="539" y="-617.6" font-family="Bitstream Vera Sans" font-size="8.00">UUID</text>
<text text-anchor="start" x="459" y="-604.6" font-family="Bitstream Vera Sans" font-size="8.00">revision</text>
<text text-anchor="start" x="539" y="-604.6" font-family="Bitstream Vera Sans" font-size="8.00">Integer</text>
<text text-anchor="start" x="459" y="-591.6" font-family="Bitstream Vera Sans" font-size="8.00">edits_pending</text>
<text text-anchor="start" x="539" y="-591.6" font-family="Bitstream Vera Sans" font-size="8.00">Integer</text>
<text text-anchor="start" x="459" y="-578.6" font-family="Bitstream Vera Sans" font-size="8.00">last_updated</text>
<text text-anchor="start" x="539" y="-578.6" font-family="Bitstream Vera Sans" font-size="8.00">DateTime</text>
<text text-anchor="start" x="459" y="-565.6" font-family="Bitstream Vera Sans" font-size="8.00">comment</text>
<text text-anchor="start" x="539" y="-565.6" font-family="Bitstream Vera Sans" font-size="8.00">UnicodeText</text>
<text text-anchor="start" x="459" y="-552.6" font-family="Bitstream Vera Sans" font-size="8.00">_type</text>
<text text-anchor="start" x="539" y="-552.6" font-family="Bitstream Vera Sans" font-size="8.00">String</text>
<text text-anchor="start" x="459" y="-539.6" font-family="Bitstream Vera Sans" font-size="8.00">short_description</text>
<text text-anchor="start" x="539" y="-539.6" font-family="Bitstream Vera Sans" font-size="8.00">Unicode</text>
<text text-anchor="start" x="459" y="-526.6" font-family="Bitstream Vera Sans" font-size="8.00">description</text>
<text text-anchor="start" x="539" y="-526.6" font-family="Bitstream Vera Sans" font-size="8.00">UnicodeText</text>
<text text-anchor="start" x="459" y="-513.6" font-family="Bitstream Vera Sans" font-size="8.00">start_date</text>
<text text-anchor="start" x="539" y="-513.6" font-family="Bitstream Vera Sans" font-size="8.00">DateTime</text>
<text text-anchor="start" x="459" y="-500.6" font-family="Bitstream Vera Sans" font-size="8.00">end_date</text>
<text text-anchor="start" x="539" y="-500.6" font-family="Bitstream Vera Sans" font-size="8.00">DateTime</text>
<text text-anchor="start" x="459" y="-487.6" font-family="Bitstream Vera Sans" font-size="8.00">location</text>
<text text-anchor="start" x="539" y="-487.6" font-family="Bitstream Vera Sans" font-size="8.00">UUID</text>
</g>
<!-- Event&#45;&gt;Resource -->
<g id="edge2" class="edge"><title>Event&#45;&gt;Resource</title>
<path fill="none" stroke="black" d="M566.826,-479.293C579.05,-459.139 593.35,-438.419 609,-421 654.327,-370.55 716.023,-324.829 764.398,-292.781"/>
<polygon fill="none" stroke="black" points="766.523,-295.573 772.961,-287.159 762.681,-289.722 766.523,-295.573"/>
</g>
<!-- Place -->
<g id="node12" class="node"><title>Place</title>
<polygon fill="lightyellow" stroke="none" points="293.5,-470.5 293.5,-657.5 422.5,-657.5 422.5,-470.5 293.5,-470.5"/>
<polygon fill="palegoldenrod" stroke="none" points="294,-639 294,-657 423,-657 423,-639 294,-639"/>
<text text-anchor="start" x="347.5" y="-646.1" font-family="Helvetica Bold" font-size="8.00">Place</text>
<text text-anchor="start" x="296" y="-630.6" font-family="Bitstream Vera Sans" font-size="8.00">gid</text>
<text text-anchor="start" x="370" y="-630.6" font-family="Bitstream Vera Sans" font-size="8.00">UUID</text>
<text text-anchor="start" x="296" y="-617.6" font-family="Bitstream Vera Sans" font-size="8.00">revision</text>
<text text-anchor="start" x="370" y="-617.6" font-family="Bitstream Vera Sans" font-size="8.00">Integer</text>
<text text-anchor="start" x="296" y="-604.6" font-family="Bitstream Vera Sans" font-size="8.00">edits_pending</text>
<text text-anchor="start" x="370" y="-604.6" font-family="Bitstream Vera Sans" font-size="8.00">Integer</text>
<text text-anchor="start" x="296" y="-591.6" font-family="Bitstream Vera Sans" font-size="8.00">last_updated</text>
<text text-anchor="start" x="370" y="-591.6" font-family="Bitstream Vera Sans" font-size="8.00">DateTime</text>
<text text-anchor="start" x="296" y="-578.6" font-family="Bitstream Vera Sans" font-size="8.00">comment</text>
<text text-anchor="start" x="370" y="-578.6" font-family="Bitstream Vera Sans" font-size="8.00">UnicodeText</text>
<text text-anchor="start" x="296" y="-565.6" font-family="Bitstream Vera Sans" font-size="8.00">_type</text>
<text text-anchor="start" x="370" y="-565.6" font-family="Bitstream Vera Sans" font-size="8.00">String</text>
<text text-anchor="start" x="296" y="-552.6" font-family="Bitstream Vera Sans" font-size="8.00">primary_name</text>
<text text-anchor="start" x="370" y="-552.6" font-family="Bitstream Vera Sans" font-size="8.00">UnicodeText</text>
<text text-anchor="start" x="296" y="-539.6" font-family="Bitstream Vera Sans" font-size="8.00">type_id</text>
<text text-anchor="start" x="370" y="-539.6" font-family="Bitstream Vera Sans" font-size="8.00">Integer</text>
<text text-anchor="start" x="296" y="-526.6" font-family="Bitstream Vera Sans" font-size="8.00">address</text>
<text text-anchor="start" x="370" y="-526.6" font-family="Bitstream Vera Sans" font-size="8.00">UnicodeText</text>
<text text-anchor="start" x="296" y="-513.6" font-family="Bitstream Vera Sans" font-size="8.00">area_id</text>
<text text-anchor="start" x="370" y="-513.6" font-family="Bitstream Vera Sans" font-size="8.00">Integer</text>
<text text-anchor="start" x="296" y="-500.6" font-family="Bitstream Vera Sans" font-size="8.00">coordinates</text>
<text text-anchor="start" x="370" y="-500.6" font-family="Bitstream Vera Sans" font-size="8.00">Point</text>
<text text-anchor="start" x="296" y="-487.6" font-family="Bitstream Vera Sans" font-size="8.00">begin_event_gid</text>
<text text-anchor="start" x="370" y="-487.6" font-family="Bitstream Vera Sans" font-size="8.00">UUID</text>
<text text-anchor="start" x="296" y="-474.6" font-family="Bitstream Vera Sans" font-size="8.00">end_event_gid</text>
<text text-anchor="start" x="370" y="-474.6" font-family="Bitstream Vera Sans" font-size="8.00">UUID</text>
</g>
<!-- Place&#45;&gt;Area -->
<g id="edge14" class="edge"><title>Place&#45;&gt;Area</title>
<path fill="none" stroke="black" d="M314.624,-466.167C303.333,-440.962 290.939,-413.293 278.863,-386.334"/>
<polygon fill="none" stroke="black" points="278.799,-386.191 272.695,-382.351 273.893,-375.24 279.996,-379.08 278.799,-386.191"/>
<text text-anchor="middle" x="299" y="-396.1" font-family="Bitstream Vera Sans" font-size="8.00">area_id</text>
</g>
<!-- PlaceType -->
<g id="node13" class="node"><title>PlaceType</title>
<polygon fill="lightyellow" stroke="none" points="324,-223 324,-267 392,-267 392,-223 324,-223"/>
<polygon fill="palegoldenrod" stroke="none" points="324,-249 324,-267 392,-267 392,-249 324,-249"/>
<text text-anchor="start" x="337.5" y="-256.1" font-family="Helvetica Bold" font-size="8.00">PlaceType</text>
<text text-anchor="start" x="326" y="-240.6" font-family="Bitstream Vera Sans" font-size="8.00">id</text>
<text text-anchor="start" x="356" y="-240.6" font-family="Bitstream Vera Sans" font-size="8.00">Integer</text>
<text text-anchor="start" x="326" y="-227.6" font-family="Bitstream Vera Sans" font-size="8.00">name</text>
<text text-anchor="start" x="356" y="-227.6" font-family="Bitstream Vera Sans" font-size="8.00">Unicode</text>
</g>
<!-- Place&#45;&gt;PlaceType -->
<g id="edge13" class="edge"><title>Place&#45;&gt;PlaceType</title>
<path fill="none" stroke="black" d="M358,-466.167C358,-404.519 358,-328.126 358,-283.448"/>
<polygon fill="none" stroke="black" points="358,-283.189 354,-277.189 358,-271.189 362,-277.189 358,-283.189"/>
<text text-anchor="middle" x="373.5" y="-396.1" font-family="Bitstream Vera Sans" font-size="8.00">type_id</text>
</g>
<!-- Place&#45;&gt;Resource -->
<g id="edge3" class="edge"><title>Place&#45;&gt;Resource</title>
<path fill="none" stroke="black" d="M401.887,-466.225C412.374,-449.718 424.743,-433.797 439,-421 533.496,-336.179 675.542,-287.592 763.039,-264.034"/>
<polygon fill="none" stroke="black" points="764.136,-267.365 772.907,-261.422 762.344,-260.598 764.136,-267.365"/>
</g>
<!-- ResourceAlias -->
<g id="node15" class="node"><title>ResourceAlias</title>
<polygon fill="lightyellow" stroke="none" points="626,-535.5 626,-592.5 742,-592.5 742,-535.5 626,-535.5"/>
<polygon fill="palegoldenrod" stroke="none" points="626,-574 626,-592 742,-592 742,-574 626,-574"/>
<text text-anchor="start" x="655" y="-581.1" font-family="Helvetica Bold" font-size="8.00">ResourceAlias</text>
<text text-anchor="start" x="628" y="-565.6" font-family="Bitstream Vera Sans" font-size="8.00">id</text>
<text text-anchor="start" x="689" y="-565.6" font-family="Bitstream Vera Sans" font-size="8.00">Integer</text>
<text text-anchor="start" x="628" y="-552.6" font-family="Bitstream Vera Sans" font-size="8.00">resource_gid</text>
<text text-anchor="start" x="689" y="-552.6" font-family="Bitstream Vera Sans" font-size="8.00">UUID</text>
<text text-anchor="start" x="628" y="-539.6" font-family="Bitstream Vera Sans" font-size="8.00">name</text>
<text text-anchor="start" x="689" y="-539.6" font-family="Bitstream Vera Sans" font-size="8.00">UnicodeText</text>
</g>
<!-- ResourceAlias&#45;&gt;Resource -->
<g id="edge15" class="edge"><title>ResourceAlias&#45;&gt;Resource</title>
<path fill="none" stroke="black" d="M699.628,-531.446C725.343,-479.525 777.034,-375.155 810.277,-308.033"/>
<polygon fill="none" stroke="black" points="810.324,-307.938 809.402,-300.786 815.65,-297.185 816.571,-304.337 810.324,-307.938"/>
<text text-anchor="middle" x="796" y="-396.1" font-family="Bitstream Vera Sans" font-size="8.00">resource_gid</text>
</g>
<!-- ResourceApproval -->
<g id="node16" class="node"><title>ResourceApproval</title>
<polygon fill="lightyellow" stroke="none" points="1074,-542 1074,-586 1170,-586 1170,-542 1074,-542"/>
<polygon fill="palegoldenrod" stroke="none" points="1074,-568 1074,-586 1170,-586 1170,-568 1074,-568"/>
<text text-anchor="start" x="1085" y="-575.1" font-family="Helvetica Bold" font-size="8.00">ResourceApproval</text>
<text text-anchor="start" x="1076" y="-559.6" font-family="Bitstream Vera Sans" font-size="8.00">resource_gid</text>
<text text-anchor="start" x="1137" y="-559.6" font-family="Bitstream Vera Sans" font-size="8.00">UUID</text>
<text text-anchor="start" x="1076" y="-546.6" font-family="Bitstream Vera Sans" font-size="8.00">editor_id</text>
<text text-anchor="start" x="1137" y="-546.6" font-family="Bitstream Vera Sans" font-size="8.00">Integer</text>
</g>
<!-- ResourceApproval&#45;&gt;Editor -->
<g id="edge17" class="edge"><title>ResourceApproval&#45;&gt;Editor</title>
<path fill="none" stroke="black" d="M1122,-537.861C1122,-488.888 1122,-379.375 1122,-309.3"/>
<polygon fill="none" stroke="black" points="1122,-309.126 1118,-303.126 1122,-297.126 1126,-303.126 1122,-309.126"/>
<text text-anchor="middle" x="1140.5" y="-396.1" font-family="Bitstream Vera Sans" font-size="8.00">editor_id</text>
</g>
<!-- ResourceApproval&#45;&gt;Resource -->
<g id="edge16" class="edge"><title>ResourceApproval&#45;&gt;Resource</title>
<path fill="none" stroke="black" d="M1117.61,-537.806C1110.57,-505.444 1093.54,-450.002 1056,-421 1020.61,-393.659 994.958,-426.648 957,-403 920.403,-380.2 891.531,-341.284 871.744,-307.902"/>
<polygon fill="none" stroke="black" points="871.622,-307.689 865.164,-304.481 865.641,-297.285 872.099,-300.494 871.622,-307.689"/>
<text text-anchor="middle" x="985" y="-396.1" font-family="Bitstream Vera Sans" font-size="8.00">resource_gid</text>
</g>
<!-- Work -->
<g id="node17" class="node"><title>Work</title>
<polygon fill="lightyellow" stroke="none" points="1204,-503 1204,-625 1326,-625 1326,-503 1204,-503"/>
<polygon fill="palegoldenrod" stroke="none" points="1204,-607 1204,-625 1326,-625 1326,-607 1204,-607"/>
<text text-anchor="start" x="1254.5" y="-614.1" font-family="Helvetica Bold" font-size="8.00">Work</text>
<text text-anchor="start" x="1206" y="-598.6" font-family="Bitstream Vera Sans" font-size="8.00">gid</text>
<text text-anchor="start" x="1273" y="-598.6" font-family="Bitstream Vera Sans" font-size="8.00">UUID</text>
<text text-anchor="start" x="1206" y="-585.6" font-family="Bitstream Vera Sans" font-size="8.00">revision</text>
<text text-anchor="start" x="1273" y="-585.6" font-family="Bitstream Vera Sans" font-size="8.00">Integer</text>
<text text-anchor="start" x="1206" y="-572.6" font-family="Bitstream Vera Sans" font-size="8.00">edits_pending</text>
<text text-anchor="start" x="1273" y="-572.6" font-family="Bitstream Vera Sans" font-size="8.00">Integer</text>
<text text-anchor="start" x="1206" y="-559.6" font-family="Bitstream Vera Sans" font-size="8.00">last_updated</text>
<text text-anchor="start" x="1273" y="-559.6" font-family="Bitstream Vera Sans" font-size="8.00">DateTime</text>
<text text-anchor="start" x="1206" y="-546.6" font-family="Bitstream Vera Sans" font-size="8.00">comment</text>
<text text-anchor="start" x="1273" y="-546.6" font-family="Bitstream Vera Sans" font-size="8.00">UnicodeText</text>
<text text-anchor="start" x="1206" y="-533.6" font-family="Bitstream Vera Sans" font-size="8.00">_type</text>
<text text-anchor="start" x="1273" y="-533.6" font-family="Bitstream Vera Sans" font-size="8.00">String</text>
<text text-anchor="start" x="1206" y="-520.6" font-family="Bitstream Vera Sans" font-size="8.00">primary_name</text>
<text text-anchor="start" x="1273" y="-520.6" font-family="Bitstream Vera Sans" font-size="8.00">UnicodeText</text>
<text text-anchor="start" x="1206" y="-507.6" font-family="Bitstream Vera Sans" font-size="8.00">type_id</text>
<text text-anchor="start" x="1273" y="-507.6" font-family="Bitstream Vera Sans" font-size="8.00">Integer</text>
</g>
<!-- Work&#45;&gt;Resource -->
<g id="edge4" class="edge"><title>Work&#45;&gt;Resource</title>
<path fill="none" stroke="black" d="M1244.36,-498.985C1231.93,-470.627 1213.13,-439.553 1186,-421 1137.49,-387.825 1109.47,-425.058 1055,-403 998.024,-379.928 942.317,-338.269 902.029,-303.659"/>
<polygon fill="none" stroke="black" points="904.279,-300.978 894.435,-297.062 899.689,-306.263 904.279,-300.978"/>
</g>
<!-- WorkType -->
<g id="node18" class="node"><title>WorkType</title>
<polygon fill="lightyellow" stroke="none" points="1222.5,-223 1222.5,-267 1307.5,-267 1307.5,-223 1222.5,-223"/>
<polygon fill="palegoldenrod" stroke="none" points="1223,-249 1223,-267 1308,-267 1308,-249 1223,-249"/>
<text text-anchor="start" x="1245.5" y="-256.1" font-family="Helvetica Bold" font-size="8.00">WorkType</text>
<text text-anchor="start" x="1225" y="-240.6" font-family="Bitstream Vera Sans" font-size="8.00">id</text>
<text text-anchor="start" x="1255" y="-240.6" font-family="Bitstream Vera Sans" font-size="8.00">Integer</text>
<text text-anchor="start" x="1225" y="-227.6" font-family="Bitstream Vera Sans" font-size="8.00">name</text>
<text text-anchor="start" x="1255" y="-227.6" font-family="Bitstream Vera Sans" font-size="8.00">UnicodeText</text>
</g>
<!-- Work&#45;&gt;WorkType -->
<g id="edge18" class="edge"><title>Work&#45;&gt;WorkType</title>
<path fill="none" stroke="black" d="M1265,-498.85C1265,-434.169 1265,-336.53 1265,-283.499"/>
<polygon fill="none" stroke="black" points="1265,-283.335 1261,-277.335 1265,-271.335 1269,-277.335 1265,-283.335"/>
<text text-anchor="middle" x="1280.5" y="-396.1" font-family="Bitstream Vera Sans" font-size="8.00">type_id</text>
</g>
<!-- WorkWork -->
<g id="node19" class="node"><title>WorkWork</title>
<polygon fill="lightyellow" stroke="none" points="1221,-757.5 1221,-814.5 1307,-814.5 1307,-757.5 1221,-757.5"/>
<polygon fill="palegoldenrod" stroke="none" points="1221,-796 1221,-814 1307,-814 1307,-796 1221,-796"/>
<text text-anchor="start" x="1243.5" y="-803.1" font-family="Helvetica Bold" font-size="8.00">WorkWork</text>
<text text-anchor="start" x="1223" y="-787.6" font-family="Bitstream Vera Sans" font-size="8.00">parent_gid</text>
<text text-anchor="start" x="1274" y="-787.6" font-family="Bitstream Vera Sans" font-size="8.00">UUID</text>
<text text-anchor="start" x="1223" y="-774.6" font-family="Bitstream Vera Sans" font-size="8.00">child_gid</text>
<text text-anchor="start" x="1274" y="-774.6" font-family="Bitstream Vera Sans" font-size="8.00">UUID</text>
<text text-anchor="start" x="1223" y="-761.6" font-family="Bitstream Vera Sans" font-size="8.00">position</text>
<text text-anchor="start" x="1274" y="-761.6" font-family="Bitstream Vera Sans" font-size="8.00">Integer</text>
</g>
<!-- WorkWork&#45;&gt;Work -->
<g id="edge19" class="edge"><title>WorkWork&#45;&gt;Work</title>
<path fill="none" stroke="black" d="M1239.22,-753.295C1235.84,-747.491 1232.88,-741.276 1231,-735 1221.87,-704.589 1226.04,-670.372 1234.1,-640.651"/>
<polygon fill="none" stroke="black" points="1234.11,-640.589 1231.96,-633.706 1237.49,-629.073 1239.64,-635.955 1234.11,-640.589"/>
<text text-anchor="middle" x="1254" y="-728.1" font-family="Bitstream Vera Sans" font-size="8.00">parent_gid</text>
</g>
<!-- WorkWork&#45;&gt;Work -->
<g id="edge20" class="edge"><title>WorkWork&#45;&gt;Work</title>
<path fill="none" stroke="black" d="M1273.48,-753.497C1274.95,-747.413 1276.23,-741.05 1277,-735 1280.89,-704.569 1279.66,-670.901 1276.82,-641.61"/>
<polygon fill="none" stroke="black" points="1276.79,-641.279 1272.17,-635.737 1275.52,-629.347 1280.13,-634.889 1276.79,-641.279"/>
<text text-anchor="middle" x="1296.5" y="-728.1" font-family="Bitstream Vera Sans" font-size="8.00">child_gid</text>
</g>
</g>
</svg>
